<?xml version="1.0" encoding="UTF-8" standalone="no"?>
<svg
   id="Layer_1"
   viewBox="0 0 30 30"
   version="1.1"
   sodipodi:docname="Ilex-01.svg"
   inkscape:version="1.2.1 (9c6d41e410, 2022-07-14)"
   xmlns:inkscape="http://www.inkscape.org/namespaces/inkscape"
   xmlns:sodipodi="http://sodipodi.sourceforge.net/DTD/sodipodi-0.dtd"
   xmlns="http://www.w3.org/2000/svg"
   xmlns:svg="http://www.w3.org/2000/svg">
  <sodipodi:namedview
     id="namedview18"
     pagecolor="#ffffff"
     bordercolor="#111111"
     borderopacity="1"
     inkscape:showpageshadow="0"
     inkscape:pageopacity="0"
     inkscape:pagecheckerboard="1"
     inkscape:deskcolor="#d1d1d1"
     showgrid="false"
     inkscape:zoom="27.633333"
     inkscape:cx="14.981906"
     inkscape:cy="15.018094"
     inkscape:window-width="1920"
     inkscape:window-height="1009"
     inkscape:window-x="-8"
     inkscape:window-y="-8"
     inkscape:window-maximized="1"
     inkscape:current-layer="Layer_1" />
  <defs
     id="defs13">
    <style
       id="style11">.cls-1{fill:none;stroke:#000;stroke-miterlimit:10;}</style>
  </defs>
  <path
     style="color:#000000;fill:#000000;stroke-miterlimit:10;-inkscape-stroke:none"
     d="M 8.4003906,4.5 C 6.52787,4.5 5.0673764,4.6237557 3.9101563,4.9296875 2.7529361,5.2356193 1.8820642,5.742965 1.3027344,6.4960937 0.16674055,7.9728857 0.19921875,9.9000026 0.19921875,12.5 v 4.900391 c 0,2.539997 0.29210249,4.577044 1.53710935,6.003906 C 2.981335,24.831159 5.0837273,25.5 8.4003906,25.5 H 21.599609 c 3.234951,0 5.104419,-0.407351 6.34375,-1.640625 1.343287,-1.237334 1.857422,-3.213367 1.857422,-6.458984 V 12.5 c 0,-2.712343 -0.06113,-4.7323341 -1.216797,-6.1191406 C 28.006148,5.6874561 27.16717,5.208502 26.037109,4.9160156 24.907048,4.6235292 23.47213,4.5 21.599609,4.5 Z m 0,1 H 21.599609 c 1.827476,0 3.192564,0.1272526 4.1875,0.3847656 0.994937,0.2575131 1.607134,0.6281701 2.029297,1.1347656 0.844326,1.0131911 0.984375,2.7928172 0.984375,5.4804688 v 4.900391 c 0,3.147913 -0.488349,4.767314 -1.539062,5.730468 l -0.0078,0.0078 -0.0078,0.0078 C 26.285373,24.107205 24.75794,24.5 21.599609,24.5 H 8.4003906 C 5.2170605,24.5 3.4682721,23.869229 2.4882813,22.746094 1.5082904,21.622958 1.1992188,19.860388 1.1992187,17.400391 V 12.5 c 0,-2.5999974 0.03248,-4.2713258 0.8964844,-5.3945313 C 2.5163723,6.5585988 3.1482379,6.165552 4.1660156,5.8964844 5.1837933,5.6274167 6.572915,5.5 8.4003906,5.5 Z m 4.9296874,5.056641 0.04687,0.02734 c -0.428007,-0.285338 -1.027071,-0.285338 -1.455078,0 l -0.04102,0.02734 -0.03516,0.03516 c -0.258925,0.258926 -0.544922,0.632076 -0.544922,1.154297 V 18 c 0,0.411111 0.171752,0.917236 0.621094,1.216797 l 0.02734,0.01563 0.02734,0.01563 c 0.259628,0.129814 0.522656,0.152344 0.722656,0.152344 0.1,0 0.418204,0.08961 0.753906,-0.246094 l -0.123047,0.08984 6.023438,-3.113282 0.02344,-0.01563 c 0.406673,-0.271115 0.722656,-0.692622 0.722656,-1.214843 0,-0.522222 -0.315983,-0.945682 -0.722656,-1.216797 l -0.02344,-0.01563 z m -0.8125,0.859375 c 0.120127,-0.07708 0.153101,-0.101058 0.304688,0 l 0.02344,0.01563 5.980469,3.089843 c 0.187268,0.128356 0.273437,0.302283 0.273437,0.378907 0,0.07707 -0.0858,0.250334 -0.27539,0.378906 l -6.023438,3.111328 -0.05469,0.05664 c 0.135702,-0.135702 0.05313,-0.04687 -0.04687,-0.04687 -0.170113,0 -0.158032,-8.41e-4 -0.234375,-0.03906 C 12.337562,18.267421 12.300781,18.177195 12.300781,18 v -6.199219 c 0,-0.06691 0.103711,-0.24657 0.216797,-0.384765 z"
     id="path15" />
</svg>
