<svg viewBox="0 0 30 30" xmlns="http://www.w3.org/2000/svg"><path d="M11.35 4.532c-1.348.147-2.601.608-3.656 1.345-.231.161-.679.552-.997.87-1.072 1.072-1.715 2.263-2.06 3.821-.111.502-.112.546-.112 4.432s.001 3.93.112 4.432c.348 1.571.986 2.747 2.085 3.846 1.099 1.099 2.275 1.737 3.846 2.085.502.111.546.112 4.432.112s3.93-.001 4.432-.112c1.571-.348 2.747-.986 3.846-2.085 1.099-1.099 1.737-2.275 2.085-3.846.111-.502.112-.546.112-4.432s-.001-3.93-.112-4.432c-.345-1.558-.988-2.749-2.06-3.821-.318-.318-.766-.709-.997-.87a8.159 8.159 0 0 0-2.981-1.258c-.403-.079-.834-.089-4.125-.097-2.021-.005-3.754 0-3.85.01m7.975 1.105c2.614.61 4.51 2.537 5.056 5.138.087.418.094.717.094 4.225 0 3.508-.007 3.807-.094 4.225-.487 2.321-2.116 4.185-4.305 4.925-.987.333-.859.325-5.076.325-4.215 0-4.09.008-5.071-.324-2.196-.742-3.822-2.601-4.31-4.926-.087-.418-.094-.717-.094-4.225 0-3.508.007-3.807.094-4.225.588-2.803 2.829-4.887 5.619-5.224.186-.022 1.98-.036 3.987-.03 3.51.011 3.667.015 4.1.116m.696 3.558c-.496.225-.656.795-.352 1.254.168.255.423.368.765.34.466-.039.725-.314.756-.802.016-.264.001-.339-.099-.487-.134-.201-.492-.401-.714-.399a1.098 1.098 0 0 0-.356.094m-5.942.682a5.267 5.267 0 0 0-4.115 3.798c-.124.452-.137.579-.137 1.325 0 .744.013.873.136 1.314.265.955.683 1.678 1.364 2.359s1.404 1.099 2.359 1.364c.442.123.568.136 1.314.135.901-.001 1.256-.066 1.994-.366a5.233 5.233 0 0 0 2.812-2.812c.301-.74.366-1.093.366-1.994s-.065-1.254-.366-1.994c-.611-1.502-1.966-2.661-3.581-3.063-.541-.135-1.607-.168-2.146-.066m2.059 1.07c.735.21 1.246.515 1.828 1.09.559.552.9 1.138 1.115 1.913.067.244.09.505.09 1.05s-.023.806-.09 1.05c-.215.776-.557 1.362-1.115 1.911-.571.563-1.013.839-1.716 1.069-.395.13-.483.139-1.25.139s-.855-.009-1.25-.139c-.703-.23-1.145-.506-1.716-1.069-.558-.549-.9-1.135-1.115-1.911-.127-.458-.127-1.642 0-2.1a4.068 4.068 0 0 1 1.115-1.913c.68-.672 1.344-1.022 2.258-1.189.398-.073 1.439-.017 1.846.099" fill-rule="evenodd"/></svg>